<svg xmlns="http://www.w3.org/2000/svg" fill="none" viewBox="0 0 74.4179600886918 25" style="max-height: 500px" width="74.4179600886918" height="25">
<g clip-path="url(#clip0_304_12721)">
<g clip-path="url(#clip1_304_12721)">
<path fill="#95001A" d="M16.4724 14.7638L11.0361 12.093L10.8196 12.2257L10.6548 12.0679L5.16672 14.7638L4.9502 15.1098L5.08222 15.414L10.3327 17.9928H10.8196H11.3065L16.5559 15.414L16.6889 15.1098L16.4724 14.7638Z"/>
<path fill="#40004D" d="M4.95041 15.1099L10.8198 17.9929V18.2323L7.01636 20.1013H6.52839L4.95041 19.3153L4.73389 18.9954V15.4548L4.95041 15.1099Z"/>
<path fill="#520033" d="M16.689 15.1099L10.8218 17.9929V18.2323L14.6252 20.1013H15.1132L16.6912 19.3153L16.9077 18.9954V15.4548L16.689 15.1099Z"/>
<path fill="#FFA80A" d="M16.6911 9.37622L16.4746 9.51002V14.7639L16.689 15.1099L16.9077 15.4549L20.4555 17.1974H20.9424L21.6416 16.8493L16.6911 9.37622Z"/>
<path fill="#FF3417" d="M4.95047 9.37622L5.16699 9.51002V14.7639L4.95047 15.1099L4.73395 15.4549L1.18613 17.1974H0.699213L0 16.8493L4.95047 9.37622Z"/>
<path fill="#6D0044" d="M4.95096 19.3153L0.699707 17.1974L4.95096 15.1099V19.3153Z"/>
<path fill="#6D0074" d="M10.8192 22.238L15.1096 20.1014L10.8192 17.9929L6.52783 20.1014L10.8192 22.238Z"/>
<path fill="#6D0044" d="M16.6911 19.3153L20.9423 17.1974L16.689 15.1099L16.6911 19.3153Z"/>
<path fill="#FFA80A" d="M10.8206 2.76221H9.33242L4.9502 9.37605L5.16672 9.50986L10.8196 6.7324V6.49301L11.0361 6.34353L11.0372 2.94932L10.8206 2.76221Z"/>
<path fill="#D7001F" d="M10.8196 6.49268L4.9502 9.37571V15.1094L10.8196 12.2253L11.0361 12.0925V6.83764L10.8196 6.49268Z"/>
<path fill="#FFE50A" d="M10.8209 2.76221H12.3091L16.6913 9.37605L16.4748 9.50985L11.0363 6.83797L10.8198 6.49301L10.8209 2.76221Z"/>
<path fill="#EF8109" d="M16.6892 15.1094L10.8198 12.2253V6.49268L16.6892 9.37571V15.1094Z"/>
<path fill="white" d="M57.6491 8.493L53.1866 18.7478H51.1735L46.711 8.493H49.2459L52.1906 15.411L55.1153 8.493H57.6491ZM30.3534 15.1288V4.67334H27.9009V15.4497C27.9009 17.5446 29.0416 18.7467 31.1508 18.7467H33.709V16.5421H31.4962C30.8203 16.5421 30.3534 16.1104 30.3534 15.1288ZM46.711 16.8682V18.7843C46.3762 18.9307 45.9473 19.007 45.546 19.007C44.2437 19.007 43.4547 18.2125 43.2572 17.2592L43.2635 17.2362C42.6203 18.4979 41.1236 19.007 39.741 19.007C36.6991 19.007 34.5698 16.6362 34.5698 13.6862C34.5698 10.7363 36.8016 8.27034 39.741 8.27034C41.2736 8.27034 42.3636 8.88605 43.0332 10.0694V10.0662V8.493H45.4858V15.71C45.4858 16.1417 45.5439 16.448 45.66 16.6299C45.7762 16.8118 45.9706 16.9027 46.2431 16.9027C46.3825 16.9027 46.5388 16.8912 46.7131 16.8682H46.711ZM43.2572 13.5901C43.2572 11.7639 41.8123 10.475 40.0685 10.475C37.975 10.475 37.0234 12.1663 37.0234 13.6862C37.0234 15.3703 38.3246 16.7052 40.0685 16.7052C41.8123 16.7052 43.2572 15.4152 43.2572 13.5901ZM69.7892 16.8682V18.7843C69.4544 18.9307 69.0256 19.007 68.6242 19.007C67.3219 19.007 66.5329 18.2125 66.3354 17.2592L66.3418 17.2362C65.6985 18.4979 64.2019 19.007 62.8193 19.007C59.7774 19.007 57.6481 16.6362 57.6481 13.6862C57.6481 10.7363 59.8799 8.27034 62.8193 8.27034C64.3519 8.27034 65.4419 8.88605 66.1115 10.0694V10.0662V8.493H68.564V15.71C68.564 16.1417 68.6221 16.448 68.7383 16.6299C68.8545 16.8118 69.0488 16.9027 69.3213 16.9027C69.4608 16.9027 69.6171 16.8912 69.7914 16.8682H69.7892ZM66.3354 13.5901C66.3354 11.7639 64.8905 10.475 63.1467 10.475C61.0533 10.475 60.1017 12.1663 60.1017 13.6862C60.1017 15.3703 61.4029 16.7052 63.1467 16.7052C64.8905 16.7052 66.3354 15.4152 66.3354 13.5901Z"/>
</g>
<rect fill="#212630" height="14" width="1" y="6" x="78"/>
<path fill="#B9B9B9" d="M88.248 7.57593H89.768V17.7199H95.816V18.9999H88.248V7.57593Z"/>
<path fill="#B9B9B9" d="M97.9067 14.8719C97.9067 15.3733 97.9707 15.8213 98.0987 16.2159C98.2373 16.5999 98.424 16.9253 98.6587 17.1919C98.8933 17.4479 99.1653 17.6453 99.4747 17.7839C99.7947 17.9226 100.131 17.9919 100.483 17.9919C100.835 17.9919 101.165 17.9226 101.475 17.7839C101.795 17.6453 102.072 17.4479 102.307 17.1919C102.541 16.9253 102.723 16.5999 102.851 16.2159C102.989 15.8213 103.059 15.3733 103.059 14.8719C103.059 14.3706 102.989 13.9279 102.851 13.5439C102.723 13.1493 102.541 12.8186 102.307 12.5519C102.072 12.2853 101.795 12.0826 101.475 11.9439C101.165 11.8053 100.835 11.7359 100.483 11.7359C100.131 11.7359 99.7947 11.8053 99.4747 11.9439C99.1653 12.0826 98.8933 12.2853 98.6587 12.5519C98.424 12.8186 98.2373 13.1493 98.0987 13.5439C97.9707 13.9279 97.9067 14.3706 97.9067 14.8719ZM96.4667 14.8719C96.4667 14.2639 96.552 13.6986 96.7227 13.1759C96.8933 12.6426 97.1493 12.1839 97.4907 11.7999C97.832 11.4053 98.2533 11.0959 98.7547 10.8719C99.256 10.6479 99.832 10.5359 100.483 10.5359C101.144 10.5359 101.72 10.6479 102.211 10.8719C102.712 11.0959 103.133 11.4053 103.475 11.7999C103.816 12.1839 104.072 12.6426 104.243 13.1759C104.413 13.6986 104.499 14.2639 104.499 14.8719C104.499 15.4799 104.413 16.0453 104.243 16.5679C104.072 17.0906 103.816 17.5493 103.475 17.9439C103.133 18.3279 102.712 18.6319 102.211 18.8559C101.72 19.0693 101.144 19.1759 100.483 19.1759C99.832 19.1759 99.256 19.0693 98.7547 18.8559C98.2533 18.6319 97.832 18.3279 97.4907 17.9439C97.1493 17.5493 96.8933 17.0906 96.7227 16.5679C96.552 16.0453 96.4667 15.4799 96.4667 14.8719Z"/>
<path fill="#B9B9B9" d="M111.718 13.3839C111.612 12.8613 111.388 12.4559 111.046 12.1679C110.705 11.8799 110.246 11.7359 109.67 11.7359C109.18 11.7359 108.769 11.8266 108.438 12.0079C108.108 12.1893 107.841 12.4293 107.638 12.7279C107.446 13.0266 107.308 13.3733 107.222 13.7679C107.137 14.1519 107.094 14.5519 107.094 14.9679C107.094 15.3519 107.137 15.7253 107.222 16.0879C107.318 16.4506 107.462 16.7759 107.654 17.0639C107.846 17.3413 108.097 17.5653 108.406 17.7359C108.716 17.9066 109.084 17.9919 109.51 17.9919C110.182 17.9919 110.705 17.8159 111.078 17.4639C111.462 17.1119 111.697 16.6159 111.782 15.9759H113.174C113.025 16.9999 112.641 17.7893 112.022 18.3439C111.414 18.8986 110.582 19.1759 109.526 19.1759C108.897 19.1759 108.337 19.0746 107.846 18.8719C107.366 18.6693 106.961 18.3813 106.63 18.0079C106.31 17.6346 106.065 17.1919 105.894 16.6799C105.734 16.1573 105.654 15.5866 105.654 14.9679C105.654 14.3493 105.734 13.7733 105.894 13.2399C106.054 12.6959 106.294 12.2266 106.614 11.8319C106.945 11.4266 107.356 11.1119 107.846 10.8879C108.337 10.6533 108.908 10.5359 109.558 10.5359C110.028 10.5359 110.465 10.5946 110.87 10.7119C111.286 10.8186 111.649 10.9893 111.958 11.2239C112.278 11.4586 112.54 11.7573 112.742 12.1199C112.945 12.4719 113.073 12.8933 113.126 13.3839H111.718Z"/>
<path fill="#B9B9B9" d="M122.024 18.9679C121.789 19.1066 121.464 19.1759 121.048 19.1759C120.696 19.1759 120.413 19.0799 120.2 18.8879C119.997 18.6853 119.896 18.3599 119.896 17.9119C119.523 18.3599 119.085 18.6853 118.584 18.8879C118.093 19.0799 117.56 19.1759 116.984 19.1759C116.611 19.1759 116.253 19.1333 115.912 19.0479C115.581 18.9626 115.293 18.8293 115.048 18.6479C114.803 18.4666 114.605 18.2319 114.456 17.9439C114.317 17.6453 114.248 17.2879 114.248 16.8719C114.248 16.4026 114.328 16.0186 114.488 15.7199C114.648 15.4213 114.856 15.1813 115.112 14.9999C115.379 14.8079 115.677 14.6639 116.008 14.5679C116.349 14.4719 116.696 14.3919 117.048 14.3279C117.421 14.2533 117.773 14.1999 118.104 14.1679C118.445 14.1253 118.744 14.0719 119 14.0079C119.256 13.9333 119.459 13.8319 119.608 13.7039C119.757 13.5653 119.832 13.3679 119.832 13.1119C119.832 12.8133 119.773 12.5733 119.656 12.3919C119.549 12.2106 119.405 12.0719 119.224 11.9759C119.053 11.8799 118.856 11.8159 118.632 11.7839C118.419 11.7519 118.205 11.7359 117.992 11.7359C117.416 11.7359 116.936 11.8479 116.552 12.0719C116.168 12.2853 115.96 12.6959 115.928 13.3039H114.568C114.589 12.7919 114.696 12.3599 114.888 12.0079C115.08 11.6559 115.336 11.3733 115.656 11.1599C115.976 10.9359 116.339 10.7759 116.744 10.6799C117.16 10.5839 117.603 10.5359 118.072 10.5359C118.445 10.5359 118.813 10.5626 119.176 10.6159C119.549 10.6693 119.885 10.7813 120.184 10.9519C120.483 11.1119 120.723 11.3413 120.904 11.6399C121.085 11.9386 121.176 12.3279 121.176 12.8079V17.0639C121.176 17.3839 121.192 17.6186 121.224 17.7679C121.267 17.9173 121.395 17.9919 121.608 17.9919C121.725 17.9919 121.864 17.9653 122.024 17.9119V18.9679ZM119.816 14.7279C119.645 14.8559 119.421 14.9519 119.144 15.0159C118.867 15.0693 118.573 15.1173 118.264 15.1599C117.965 15.1919 117.661 15.2346 117.352 15.2879C117.043 15.3306 116.765 15.4053 116.52 15.5119C116.275 15.6186 116.072 15.7733 115.912 15.9759C115.763 16.1679 115.688 16.4346 115.688 16.7759C115.688 16.9999 115.731 17.1919 115.816 17.3519C115.912 17.5013 116.029 17.6239 116.168 17.7199C116.317 17.8159 116.488 17.8853 116.68 17.9279C116.872 17.9706 117.075 17.9919 117.288 17.9919C117.736 17.9919 118.12 17.9333 118.44 17.8159C118.76 17.6879 119.021 17.5333 119.224 17.3519C119.427 17.1599 119.576 16.9573 119.672 16.7439C119.768 16.5199 119.816 16.3119 119.816 16.1199V14.7279Z"/>
<path fill="#B9B9B9" d="M123.37 7.57593H124.73V18.9999H123.37V7.57593Z"/>
</g>
<defs>
<clipPath id="clip0_304_12721">
<rect fill="white" height="25" width="125"/>
</clipPath>
<clipPath id="clip1_304_12721">
<rect fill="white" height="25" width="69.7917"/>
</clipPath>
</defs>
</svg>